<svg width="60" height="52" viewBox="0 0 60 52" fill="none" xmlns="http://www.w3.org/2000/svg">
<path d="M16.587 31.1181C19.5904 31.1181 21.9795 32.0735 23.7543 33.9843C25.529 35.7585 26.4164 38.2152 26.4164 41.3543C26.4164 44.7664 25.3242 47.4278 23.1399 49.3386C21.0922 51.1129 18.2253 52 14.5393 52C10.0341 52 6.48464 50.294 3.89079 46.8819C1.29693 43.3333 0 38.3517 0 31.937C0 25.9318 1.29693 20.4042 3.89079 15.3543C6.62116 10.3045 10.5802 5.25459 15.7679 0.204722C15.9044 0.0682406 16.1092 0 16.3823 0C16.7918 0 17.1331 0.204726 17.4061 0.614178C17.6792 1.02362 17.6792 1.36483 17.4061 1.6378C10.7167 8.46194 7.37201 16.5144 7.37201 25.7953C7.37201 29.6168 8.05461 32.4147 9.4198 34.189C10.6485 32.1417 13.0375 31.1181 16.587 31.1181ZM50.1707 31.1181C53.1741 31.1181 55.5631 32.0735 57.3379 33.9843C59.1126 35.7585 60 38.2152 60 41.3543C60 44.7664 58.9079 47.4278 56.7236 49.3386C54.6758 51.1129 51.8089 52 48.1229 52C43.6177 52 40.0683 50.294 37.4744 46.8819C34.8805 43.3333 33.5836 38.3517 33.5836 31.937C33.5836 25.9318 34.8805 20.4042 37.4744 15.3543C40.2048 10.3045 44.1638 5.25459 49.3515 0.204722C49.4881 0.0682406 49.6928 0 49.9659 0C50.3754 0 50.7167 0.204726 50.9898 0.614178C51.2628 1.02362 51.2628 1.36483 50.9898 1.6378C44.3003 8.46194 40.9556 16.5144 40.9556 25.7953C40.9556 29.6168 41.6382 32.4147 43.0034 34.189C44.2321 32.1417 46.6212 31.1181 50.1707 31.1181Z" fill="#0E1822"/>
</svg>
