<svg width="27" height="44" viewBox="0 0 27 44" fill="none" xmlns="http://www.w3.org/2000/svg">
<path d="M10.1284 9.21832C10.1284 6.86638 9.90083 5.15933 9.44562 4.09716C8.9904 3.035 8.07998 2.31424 6.71434 1.9349C5.42457 1.55556 3.30024 1.36588 0.341349 1.36588C0.113742 1.36588 -6.10352e-05 1.13828 -6.10352e-05 0.683062C-6.10352e-05 0.22785 0.113742 0.000244141 0.341349 0.000244141C2.54155 0.000244141 4.28653 0.0381781 5.5763 0.114046L13.3149 0.227851L20.9398 0.114046C22.2295 0.0381781 24.0124 0.000244141 26.2885 0.000244141C26.5161 0.000244141 26.6299 0.22785 26.6299 0.683062C26.6299 1.13828 26.5161 1.36588 26.2885 1.36588C23.4814 1.36588 21.395 1.59349 20.0293 2.0487C18.7396 2.42805 17.8291 3.1488 17.298 4.21097C16.767 5.27313 16.5014 6.94225 16.5014 9.21832V34.7103C16.5014 37.0622 16.729 38.7692 17.1842 39.8314C17.6395 40.8936 18.5119 41.6143 19.8017 41.9937C21.1674 42.373 23.3296 42.5627 26.2885 42.5627C26.5161 42.5627 26.6299 42.7903 26.6299 43.2455C26.6299 43.7007 26.5161 43.9283 26.2885 43.9283C24.0883 43.9283 22.3433 43.8904 21.0536 43.8145L13.3149 43.7007L5.69011 43.8145C4.40033 43.8904 2.61742 43.9283 0.341349 43.9283C0.113742 43.9283 -6.10352e-05 43.7007 -6.10352e-05 43.2455C-6.10352e-05 42.7903 0.113742 42.5627 0.341349 42.5627C3.1485 42.5627 5.19696 42.373 6.48673 41.9937C7.85237 41.5385 8.80073 40.7798 9.33181 39.7176C9.8629 38.6554 10.1284 36.9863 10.1284 34.7103V9.21832Z" fill="black"/>
</svg>
