<svg width="39" height="47" viewBox="0 0 39 47" fill="none" xmlns="http://www.w3.org/2000/svg">
<path d="M0.260183 44.9526C6.93665 39.49 12.0957 35.0517 15.7374 31.6376C19.3791 28.1476 21.9966 25.037 23.5899 22.3057C25.1831 19.5744 25.9797 16.8431 25.9797 14.1119C25.9797 11.0771 25.0314 8.61137 23.1347 6.71464C21.3138 4.74205 18.9239 3.75576 15.965 3.75576C9.9714 3.75576 5.64687 8.45963 2.99146 17.8674C2.99146 17.9432 2.83973 17.9812 2.53625 17.9812C1.85343 17.9812 1.54995 17.8294 1.62582 17.526L6.06415 0.227851C6.06415 0.0761132 6.21589 0.000244141 6.51937 0.000244141C6.74697 0.000244141 6.93665 0.0761132 7.08838 0.227851C7.31599 0.303721 7.39186 0.379591 7.31599 0.455458C7.24012 0.758935 7.20219 1.17621 7.20219 1.7073C7.20219 2.9212 7.7712 3.52815 8.90924 3.52815C9.59206 3.52815 10.7301 3.26261 12.3233 2.73153C15.434 1.74523 18.2032 1.25208 20.631 1.25208C24.5003 1.25208 27.5351 2.31425 29.7352 4.43857C32.0113 6.48704 33.1493 9.18038 33.1493 12.5186C33.1493 15.174 32.2769 17.8294 30.5319 20.4848C28.8628 23.1403 26.3591 25.9853 23.0209 29.0201C19.7585 31.979 15.1684 35.7345 9.25065 40.2866C8.94717 40.5142 8.83337 40.7039 8.90924 40.8556C9.06098 41.0074 9.32652 41.0833 9.70586 41.0833C18.0514 41.0833 23.8554 40.9694 27.1178 40.7418C30.3801 40.5142 32.7321 39.9073 34.1736 38.921C35.6151 37.9347 36.6014 36.1897 37.1325 33.686C37.1325 33.5343 37.3221 33.4584 37.7015 33.4584C38.2326 33.4584 38.4981 33.5722 38.4981 33.7998L36.7911 45.4078C36.7911 45.7113 36.6773 46.0147 36.4496 46.3182C36.2979 46.5458 36.0703 46.6596 35.7668 46.6596H1.05681C0.677462 46.6596 0.373986 46.4699 0.14638 46.0906C-0.0812271 45.6354 -0.0432927 45.256 0.260183 44.9526Z" fill="black"/>
</svg>
