<svg width="36" height="78" viewBox="0 0 36 78" fill="none" xmlns="http://www.w3.org/2000/svg">
<path d="M20.6099 31.6376C25.6172 32.1687 29.4107 33.9516 31.9902 36.9863C34.6456 40.0211 35.9733 43.549 35.9733 47.57C35.9733 51.2876 34.7594 55.0811 32.3316 58.9504C29.9038 62.8956 26.1862 66.5373 21.1789 69.8755C16.2474 73.2137 10.1779 75.8691 2.97036 77.8417C2.66688 77.9176 2.40134 77.7279 2.17373 77.2727C2.02199 76.8934 2.09786 76.6658 2.40134 76.5899C11.5056 73.7828 17.9924 69.7996 21.8617 64.6405C25.8069 59.4815 27.7795 54.2086 27.7795 48.8219C27.7795 44.725 26.7173 41.2729 24.593 38.4658C22.4687 35.6586 19.2442 34.2551 14.9197 34.2551C12.7954 34.2551 10.9745 34.4827 9.45715 34.9379C9.22954 35.0137 9.03987 34.8241 8.88813 34.3689C8.73639 33.9136 8.77433 33.6481 9.00193 33.5722C14.9197 32.0549 19.0925 29.9305 21.5203 27.1992C24.024 24.468 25.2758 20.7504 25.2758 16.0465C25.2758 12.1772 24.4413 9.14245 22.7721 6.94225C21.1789 4.74205 18.7132 3.64195 15.3749 3.64195C8.62259 3.64195 3.95665 8.15615 1.37711 17.1845C1.30124 17.2604 1.1495 17.2984 0.921895 17.2984C0.239075 17.2984 -0.0644007 17.1466 0.011468 16.8431L4.22219 0.227851C4.37393 0.0761132 4.52567 0.000244141 4.67741 0.000244141C4.90501 0.000244141 5.13262 0.0761132 5.36023 0.227851C5.58783 0.303719 5.6637 0.379587 5.58783 0.455455C5.43609 1.06241 5.36023 1.47969 5.36023 1.70729C5.36023 2.99707 6.00511 3.64195 7.29488 3.64195C7.9777 3.64195 9.11574 3.37641 10.709 2.84533C13.8196 1.70729 16.6268 1.13828 19.1304 1.13828C23.3791 1.13828 26.6794 2.42805 29.0313 5.00759C31.3833 7.51126 32.5592 10.546 32.5592 14.1119C32.5592 17.8294 31.4971 21.3194 29.3727 24.5818C27.2484 27.7683 24.3274 30.1202 20.6099 31.6376Z" fill="#0E1822"/>
</svg>
