<svg width="36" height="78" viewBox="0 0 36 78" fill="none" xmlns="http://www.w3.org/2000/svg">
<path d="M20.6098 31.6376C25.6172 32.1687 29.4106 33.9516 31.9902 36.9864C34.6456 40.0211 35.9733 43.5491 35.9733 47.5701C35.9733 51.2877 34.7594 55.0811 32.3316 58.9504C29.9038 62.8956 26.1862 66.5373 21.1789 69.8756C16.2474 73.2138 10.1779 75.8692 2.97033 77.8418C2.66685 77.9177 2.40131 77.728 2.1737 77.2728C2.02197 76.8934 2.09784 76.6658 2.40131 76.59C11.5056 73.7828 17.9924 69.7997 21.8617 64.6406C25.8069 59.4815 27.7795 54.2086 27.7795 48.8219C27.7795 44.725 26.7173 41.273 24.593 38.4658C22.4686 35.6587 19.2442 34.2551 14.9197 34.2551C12.7954 34.2551 10.9745 34.4827 9.45712 34.9379C9.22951 35.0138 9.03984 34.8241 8.8881 34.3689C8.73636 33.9137 8.7743 33.6482 9.00191 33.5723C14.9197 32.0549 19.0925 29.9306 21.5203 27.1993C24.0239 24.468 25.2758 20.7504 25.2758 16.0466C25.2758 12.1773 24.4412 9.14251 22.7721 6.94231C21.1789 4.74211 18.7131 3.64201 15.3749 3.64201C8.62256 3.64201 3.95662 8.15621 1.37708 17.1846C1.30121 17.2605 1.14948 17.2984 0.921868 17.2984C0.239048 17.2984 -0.0644274 17.1467 0.0114413 16.8432L4.22217 0.227912C4.3739 0.0761742 4.52564 0.000305176 4.67738 0.000305176C4.90499 0.000305176 5.13259 0.0761742 5.3602 0.227912C5.58781 0.30378 5.66367 0.379648 5.58781 0.455516C5.43607 1.06247 5.3602 1.47975 5.3602 1.70735C5.3602 2.99713 6.00508 3.64201 7.29486 3.64201C7.97768 3.64201 9.11571 3.37647 10.709 2.84539C13.8196 1.70736 16.6267 1.13834 19.1304 1.13834C23.3791 1.13834 26.6794 2.42811 29.0313 5.00765C31.3832 7.51133 32.5592 10.5461 32.5592 14.1119C32.5592 17.8295 31.497 21.3195 29.3727 24.5818C27.2484 27.7683 24.3274 30.1203 20.6098 31.6376Z" fill="black"/>
</svg>
