<svg width="46" height="67" viewBox="0 0 46 67" fill="none" xmlns="http://www.w3.org/2000/svg">
<path d="M44.871 40.2865C45.1745 40.2865 45.3262 41.0073 45.3262 42.4488C45.3262 43.0557 45.2504 43.6627 45.0986 44.2696C45.0228 44.8766 44.909 45.18 44.7572 45.18C42.4812 45.0283 39.2947 44.8766 35.1978 44.7248V62.7058C35.1978 63.5403 34.8943 64.0714 34.2873 64.299L29.5076 66.6889C29.0524 66.8406 28.8248 66.9165 28.8248 66.9165C28.5972 66.9165 28.4834 66.613 28.4834 66.0061V44.611C23.7036 44.4593 14.5614 44.3834 1.05675 44.3834C0.677401 44.3834 0.373925 44.2317 0.146319 43.9282C-0.0812881 43.6247 -0.0433537 43.3213 0.260122 43.0178L33.4907 0.227729C33.6424 0.0759911 33.87 0.00012207 34.1735 0.00012207C34.4011 0.00012207 34.6287 0.0759911 34.8563 0.227729C35.084 0.303599 35.1978 0.455337 35.1978 0.682943V40.5141C36.9427 40.5141 40.1672 40.4382 44.871 40.2865ZM6.63311 40.9693C13.1578 40.9693 20.4412 40.8935 28.4834 40.7417V11.4943L6.06409 40.1727C5.83649 40.4003 5.76062 40.59 5.83649 40.7417C5.98822 40.8935 6.25377 40.9693 6.63311 40.9693Z" fill="#0E1822"/>
</svg>
