<svg width="46" height="67" viewBox="0 0 46 67" fill="none" xmlns="http://www.w3.org/2000/svg">
<path d="M44.871 40.2866C45.1745 40.2866 45.3262 41.0073 45.3262 42.4488C45.3262 43.0558 45.2504 43.6627 45.0986 44.2697C45.0228 44.8766 44.909 45.1801 44.7572 45.1801C42.4812 45.0284 39.2947 44.8766 35.1978 44.7249V62.7058C35.1978 63.5404 34.8943 64.0715 34.2873 64.2991L29.5076 66.6889C29.0524 66.8407 28.8248 66.9165 28.8248 66.9165C28.5972 66.9165 28.4834 66.6131 28.4834 66.0061V44.6111C23.7036 44.4594 14.5614 44.3835 1.05675 44.3835C0.677401 44.3835 0.373925 44.2317 0.146319 43.9283C-0.0812881 43.6248 -0.0433537 43.3213 0.260122 43.0178L33.4907 0.22779C33.6424 0.0760522 33.87 0.000183105 34.1735 0.000183105C34.4011 0.000183105 34.6287 0.0760522 34.8563 0.22779C35.084 0.30366 35.1978 0.455398 35.1978 0.683004V40.5142C36.9427 40.5142 40.1672 40.4383 44.871 40.2866ZM6.63311 40.9694C13.1578 40.9694 20.4412 40.8935 28.4834 40.7418V11.4943L6.06409 40.1728C5.83649 40.4004 5.76062 40.59 5.83649 40.7418C5.98822 40.8935 6.25377 40.9694 6.63311 40.9694Z" fill="black"/>
</svg>
