<svg width="34" height="80" viewBox="0 0 34 80" fill="none" xmlns="http://www.w3.org/2000/svg">
<path d="M6.97051 11.409C5.98422 11.409 5.4152 11.9401 5.26346 13.0023L2.8736 26.0897C13.3435 26.1655 21.0442 28.1002 25.9757 31.8936C30.9072 35.6112 33.3729 40.7703 33.3729 47.3709C33.3729 51.6954 32.2728 55.6027 30.0726 59.0926C27.8724 62.6585 24.4204 66.0726 19.7165 69.3349C15.0885 72.6732 8.90517 76.1252 1.16655 79.691H1.05274C0.749266 79.691 0.483725 79.5014 0.256119 79.122C0.104381 78.8185 0.18025 78.5909 0.483725 78.4392C9.8156 73.8112 16.3783 69.1073 20.1717 64.3276C23.9651 59.6237 25.8619 54.6164 25.8619 49.3055C25.8619 43.0084 23.7375 38.1149 19.4889 34.6249C15.2402 31.1349 9.13278 29.39 1.16655 29.39C0.787201 29.39 0.483725 29.2762 0.256119 29.0485C0.0285119 28.7451 -0.047357 28.4037 0.0285118 28.0243L3.67022 7.76732C3.74609 7.23624 3.85989 6.93276 4.01163 6.8569C4.16337 6.70516 4.54271 6.59135 5.14966 6.51548C14.7091 5.37745 21.1201 4.58083 24.3824 4.12561C27.6448 3.6704 29.7312 3.21519 30.6416 2.75997C31.6279 2.22889 32.3107 1.39434 32.6901 0.256303C32.7659 0.0286945 32.9935 -0.0471745 33.3729 0.0286957C33.8281 0.0286957 34.0178 0.180433 33.9419 0.483907L31.6658 8.90536C31.3624 9.73991 30.983 10.3089 30.5278 10.6124C30.1485 10.84 29.4656 10.9538 28.4793 10.9538L6.97051 11.409Z" fill="black"/>
</svg>
