<svg width="44" height="77" viewBox="0 0 44 77" fill="none" xmlns="http://www.w3.org/2000/svg">
<path d="M28.6783 43.0369C33.7616 43.0369 37.5171 44.4025 39.9449 47.1338C42.3727 49.8651 43.5866 53.2033 43.5866 57.1485C43.5866 60.7143 42.5623 64.0146 40.5139 67.0494C38.4654 70.0083 35.6962 72.3602 32.2062 74.1052C28.7163 75.8502 24.9228 76.7227 20.8259 76.7227C14.3771 76.7227 9.29384 74.5225 5.57626 70.1221C1.85868 65.7217 -0.000102997 59.5384 -0.000102997 51.5721C-0.000102997 44.5163 1.59314 37.5743 4.77964 30.7461C8.042 23.9179 12.7079 17.8105 18.7775 12.4238C24.847 7.03708 31.9786 2.90223 40.1725 0.0192128C40.476 -0.0566596 40.7036 0.0950784 40.8553 0.474427C41.007 0.853771 40.9691 1.11931 40.7415 1.27105C33.6098 4.53341 27.5024 8.82 22.4192 14.1308C17.4118 19.3658 13.6184 25.0939 11.0388 31.3151C8.53515 37.4605 7.28331 43.568 7.28331 49.6375C7.28331 56.7691 8.76275 62.7249 11.7216 67.5046C14.7564 72.2085 18.8533 74.5604 24.0124 74.5604C27.73 74.5604 30.6889 73.2706 32.8891 70.6911C35.1651 68.1115 36.3032 64.6216 36.3032 60.2212C36.3032 56.0484 35.3169 52.6722 33.3443 50.0927C31.4476 47.5131 28.6025 46.2234 24.809 46.2234C22.8364 46.2234 20.9776 46.6406 19.2327 47.4752C17.4877 48.3098 15.553 49.6754 13.4287 51.5721C13.3528 51.648 13.239 51.6859 13.0873 51.6859C12.8597 51.6859 12.6321 51.5721 12.4045 51.3445C12.2527 51.1169 12.2148 50.9272 12.2907 50.7755C16.3876 45.6164 21.8501 43.0369 28.6783 43.0369Z" fill="#0E1822"/>
</svg>
