<svg width="44" height="77" viewBox="0 0 44 77" fill="none" xmlns="http://www.w3.org/2000/svg">
<path d="M28.6783 43.0369C33.7615 43.0369 37.517 44.4025 39.9449 47.1338C42.3727 49.8651 43.5866 53.2033 43.5866 57.1485C43.5866 60.7143 42.5623 64.0146 40.5139 67.0494C38.4654 70.0083 35.6962 72.3602 32.2062 74.1052C28.7163 75.8502 24.9228 76.7227 20.8259 76.7227C14.377 76.7227 9.29382 74.5225 5.57624 70.1221C1.85867 65.7217 -0.00012207 59.5384 -0.00012207 51.5721C-0.00012207 44.5163 1.59312 37.5743 4.77962 30.7461C8.04198 23.9179 12.7079 17.8105 18.7774 12.4238C24.8469 7.03708 31.9786 2.90223 40.1725 0.0192128C40.4759 -0.0566596 40.7035 0.0950784 40.8553 0.474427C41.007 0.853771 40.9691 1.11931 40.7415 1.27105C33.6098 4.53341 27.5024 8.82 22.4191 14.1308C17.4118 19.3658 13.6183 25.0939 11.0388 31.3151C8.53513 37.4605 7.28329 43.568 7.28329 49.6375C7.28329 56.7691 8.76274 62.7249 11.7216 67.5046C14.7564 72.2085 18.8533 74.5604 24.0124 74.5604C27.73 74.5604 30.6888 73.2706 32.889 70.6911C35.1651 68.1115 36.3031 64.6216 36.3031 60.2212C36.3031 56.0484 35.3168 52.6722 33.3443 50.0927C31.4475 47.5131 28.6025 46.2234 24.809 46.2234C22.8364 46.2234 20.9776 46.6406 19.2326 47.4752C17.4877 48.3098 15.553 49.6754 13.4287 51.5721C13.3528 51.648 13.239 51.6859 13.0873 51.6859C12.8597 51.6859 12.632 51.5721 12.4044 51.3445C12.2527 51.1169 12.2148 50.9272 12.2906 50.7755C16.3876 45.6164 21.8501 43.0369 28.6783 43.0369Z" fill="black"/>
</svg>
