<svg width="183" height="52" viewBox="0 0 183 52" fill="none" xmlns="http://www.w3.org/2000/svg">
<g clip-path="url(#clip0_55_363)">
<path d="M166.763 45.1279C166.763 41.3593 170.342 38.2557 174.815 38.2557C179.289 38.2557 182.867 41.3593 182.867 45.1279C182.867 48.8965 179.289 52.0001 174.815 52.0001C170.342 52.0001 166.763 49.0074 166.763 45.1279Z" fill="black"/>
<path d="M167.529 34.7089V1.34537H182.739V34.7089H167.529Z" fill="black"/>
<path d="M67.0712 18.7476V31.1619H55.3128V31.4944V37.1474V37.4799H68.2215V50.4485H40.4869V0.791138H68.2215V12.5404H55.3128V18.5259V18.7476H67.0712Z" fill="black"/>
<path d="M86.3705 37.4799H95.5727V50.4485H71.1612V0.791107H86.3705C86.3705 0.791107 86.3705 37.5907 86.3705 37.4799Z" fill="black"/>
<path d="M21.9547 50.3375L22.0825 31.9377L16.0755 32.0486V50.3375H0.866241V0.791077H15.8199V18.415H21.8269V0.791077H36.7805V50.3375H21.9547Z" fill="black"/>
<path d="M114.616 37.4798H123.818V50.4484C123.818 50.3375 99.4069 50.4484 99.4069 50.4484V0.791046H114.616C114.616 0.791046 114.616 37.5907 114.616 37.4798Z" fill="black"/>
<path d="M161.267 6.1115C162.801 7.88498 163.312 10.8777 163.44 13.6488L163.312 35.7064C163.184 41.4702 159.35 47.6773 153.471 49.6725C147.719 52.111 138.517 51.6676 133.405 48.2315C128.931 45.2388 126.631 40.916 126.503 36.1497V11.6536C126.886 8.2175 128.931 4.33803 132.126 2.67539C134.555 1.23444 137.239 0.458548 140.051 0.236864C146.058 -0.317347 156.794 -0.42819 161.267 6.1115ZM147.208 12.4295C146.313 11.6536 145.035 11.6536 144.013 11.9861C143.118 12.3187 142.351 13.0946 142.351 13.9813V35.5955C142.479 36.4823 143.246 37.2582 144.268 37.5907C145.035 37.8124 145.93 37.7015 146.697 37.4798C147.464 37.0365 148.23 36.7039 148.23 35.3738V13.9813C147.975 13.3162 147.591 12.8729 147.208 12.4295Z" fill="black"/>
</g>
<defs>
<clipPath id="clip0_55_363">
<rect width="182" height="52" fill="white" transform="translate(0.866669)"/>
</clipPath>
</defs>
</svg>
