<svg width="183" height="52" viewBox="0 0 183 52" fill="none" xmlns="http://www.w3.org/2000/svg">
<g clip-path="url(#clip0_87_367)">
<path d="M166.763 45.1281C166.763 41.3594 170.342 38.2559 174.815 38.2559C179.289 38.2559 182.867 41.3594 182.867 45.1281C182.867 48.8967 179.289 52.0003 174.815 52.0003C170.342 52.0003 166.763 49.0076 166.763 45.1281Z" fill="#0E1822"/>
<path d="M167.529 34.709V1.34546H182.739V34.709H167.529Z" fill="#0E1822"/>
<path d="M67.0712 18.7477V31.162H55.3128V31.4946V37.1475V37.4801H68.2215V50.4486H40.4869V0.79126H68.2215V12.5405H55.3128V18.526V18.7477H67.0712Z" fill="#0E1822"/>
<path d="M86.3705 37.4798H95.5727V50.4484H71.1612V0.791016H86.3705C86.3705 0.791016 86.3705 37.5907 86.3705 37.4798Z" fill="#0E1822"/>
<path d="M21.9547 50.3375L22.0825 31.9377L16.0755 32.0485V50.3375H0.866241V0.791016H15.8199V18.4149H21.8269V0.791016H36.7805V50.3375H21.9547Z" fill="#0E1822"/>
<path d="M114.616 37.4798H123.818V50.4484C123.818 50.3375 99.4069 50.4484 99.4069 50.4484V0.791016H114.616C114.616 0.791016 114.616 37.5907 114.616 37.4798Z" fill="#0E1822"/>
<path d="M161.267 6.11159C162.801 7.88507 163.312 10.8778 163.44 13.6489L163.312 35.7065C163.184 41.4703 159.35 47.6774 153.471 49.6726C147.719 52.1111 138.517 51.6677 133.405 48.2316C128.931 45.2389 126.631 40.916 126.503 36.1498V11.6537C126.886 8.2176 128.931 4.33812 132.126 2.67548C134.555 1.23454 137.239 0.45864 140.051 0.236956C146.058 -0.317255 156.794 -0.428098 161.267 6.11159ZM147.208 12.4296C146.313 11.6537 145.035 11.6537 144.013 11.9862C143.118 12.3188 142.351 13.0947 142.351 13.9814V35.5956C142.479 36.4824 143.246 37.2583 144.268 37.5908C145.035 37.8125 145.93 37.7016 146.697 37.4799C147.464 37.0366 148.23 36.704 148.23 35.3739V13.9814C147.975 13.3163 147.591 12.873 147.208 12.4296Z" fill="#0E1822"/>
</g>
<defs>
<clipPath id="clip0_87_367">
<rect width="182" height="52" fill="white" transform="translate(0.866669)"/>
</clipPath>
</defs>
</svg>
