<svg width="60" height="52" viewBox="0 0 60 52" fill="none" xmlns="http://www.w3.org/2000/svg">
<path d="M11.8771 0C16.3823 0 19.9317 1.77428 22.5256 5.32284C25.1195 8.73491 26.4164 13.6483 26.4164 20.063C26.4164 26.0682 25.0512 31.5958 22.3208 36.6457C19.727 41.6955 15.8362 46.7454 10.6485 51.7953C10.5119 51.9318 10.3072 52 10.0341 52C9.62457 52 9.28328 51.7953 9.01024 51.3858C8.7372 50.9764 8.7372 50.6352 9.01024 50.3622C15.6997 43.5381 19.0444 35.4856 19.0444 26.2047C19.0444 22.3832 18.3618 19.5853 16.9966 17.811C15.7679 19.8583 13.3788 20.8819 9.82935 20.8819C6.82594 20.8819 4.43686 19.9947 2.66212 18.2205C0.887372 16.3097 0 13.7848 0 10.6457C0 7.2336 1.02389 4.64042 3.07167 2.86614C5.25597 0.95538 8.19113 0 11.8771 0ZM45.4608 0C49.9659 0 53.5154 1.77428 56.1092 5.32284C58.7031 8.73491 60 13.6483 60 20.063C60 26.0682 58.6348 31.5958 55.9044 36.6457C53.3106 41.6955 49.4198 46.7454 44.2321 51.7953C44.0956 51.9318 43.8908 52 43.6177 52C43.2082 52 42.8669 51.7953 42.5939 51.3858C42.3208 50.9764 42.3208 50.6352 42.5939 50.3622C49.2833 43.5381 52.628 35.4856 52.628 26.2047C52.628 22.3832 51.9454 19.5853 50.5802 17.811C49.3515 19.8583 46.9625 20.8819 43.413 20.8819C40.4096 20.8819 38.0205 19.9947 36.2457 18.2205C34.471 16.3097 33.5836 13.7848 33.5836 10.6457C33.5836 7.2336 34.6075 4.64042 36.6553 2.86614C38.8396 0.95538 41.7747 0 45.4608 0Z" fill="#0E1822"/>
</svg>
