<svg width="38" height="100" viewBox="0 0 38 100" fill="none" xmlns="http://www.w3.org/2000/svg">
<path d="M17.8621 99.9694C17.8621 88.7374 17.8621 77.5054 17.8621 66.1508C15.1036 66.0588 14.0731 64.3579 13.3756 62.3353C12.9317 61.0481 12.5353 59.7303 12.028 58.4738C11.1085 56.16 9.49149 54.597 6.81226 54.3365C6.59031 54.3212 6.36837 54.2139 6.11471 53.9841C7.87444 53.555 9.82441 53.5397 10.8866 51.8388C11.8853 50.2452 11.9012 48.5443 11.2829 46.8128C10.4903 44.6215 8.19151 43.7787 4.45011 44.3304C4.45011 51.5323 4.45011 58.7496 4.45011 66.0435C3.64158 66.0435 2.99159 66.0435 2.21478 66.0435C2.21478 58.5504 2.21478 51.0726 2.21478 43.3037C5.10009 43.4416 7.922 43.5642 10.8232 43.7021C10.7281 40.9439 11.5524 38.201 13.55 35.6114C8.69882 35.5348 4.71961 34.0637 2.02454 30.2023C0.233101 27.628 -0.353474 24.7472 0.201395 21.7131C1.54893 14.2813 7.76347 10.9868 17.8621 12.3659C17.8621 8.22862 17.8621 4.10665 17.8621 0C18.6389 0 19.4157 0 20.1925 0C20.1925 4.91879 20.1925 9.82225 20.1925 14.6185C18.084 13.9442 16.2292 13.0401 14.2792 12.795C8.03297 12.0135 3.13427 15.8903 2.75379 21.989C2.61111 24.1802 2.86477 26.54 3.57817 28.624C5.02083 32.8379 9.0793 35.1364 13.6292 34.692C14.2951 34.6307 14.9609 34.2017 15.5316 33.8032C19.9547 30.8612 24.6315 30.4934 29.2607 33.0524C34.0643 35.7033 35.8081 40.0092 35.0472 45.1732C34.3338 49.9847 31.4326 53.2639 26.5656 54.5817C24.5681 55.118 22.3803 55.0261 20.1608 55.2253C20.1608 58.3206 20.1608 61.6764 20.1608 65.2774C21.6193 65.2774 23.0144 65.2007 24.4095 65.2927C26.1534 65.4153 27.929 65.5072 29.5936 65.9516C35.1581 67.392 38.2813 71.8204 37.98 77.6433C37.7264 82.8072 33.8582 87.0211 28.357 87.818C25.7254 88.201 23.0303 88.1397 20.1608 88.2777C20.1608 92.1391 20.1608 96.0619 20.1608 100C19.4316 99.9694 18.6548 99.9694 17.8621 99.9694ZM20.2559 87.1437C22.6974 87.1437 25.1071 87.4042 27.4217 87.0824C31.7021 86.5155 34.3813 83.8799 35.1264 79.7272C35.4276 78.0876 35.4911 76.3408 35.3325 74.6859C34.9045 70.3953 32.3045 67.2541 28.2936 66.5339C25.7095 66.0742 22.9986 66.1968 20.2718 66.0588C20.2559 73.2915 20.2559 80.2176 20.2559 87.1437ZM20.1133 43.1964C20.0974 43.1964 20.0974 43.1964 20.0816 43.1964C20.0816 46.3837 20.1133 49.5863 20.0657 52.7735C20.0498 53.6623 20.3986 54.0147 21.2547 54.1679C25.3924 54.9188 29.4034 53.126 31.2423 49.4484C33.2557 45.4183 33.2874 41.2657 31.3058 37.205C29.4985 33.5121 25.5827 31.658 21.5559 32.2862C20.5096 32.4548 20.0657 32.7919 20.0974 33.8799C20.1608 36.9905 20.1133 40.1011 20.1133 43.1964ZM17.7511 34.7686C16.9109 35.1977 16.0865 35.3815 15.6585 35.8719C12.25 39.8866 12.8366 48.3298 16.7206 51.9001C17.006 52.1606 17.3389 52.3445 17.7511 52.6509C17.7511 46.6442 17.7511 40.8826 17.7511 34.7686ZM9.76099 54.2446C12.9317 55.1027 14.3109 57.6617 15.2463 60.6037C15.595 61.7223 16.0706 62.8103 16.578 63.8676C16.7682 64.2813 17.1804 64.5878 17.4975 64.9556C17.8145 61.4006 17.8304 57.9835 17.7987 54.5664C17.7987 54.3059 17.545 53.9687 17.3072 53.8002C16.1024 52.9268 14.8816 52.1146 13.9146 51.4404C12.4719 52.4211 11.0927 53.3405 9.76099 54.2446Z" fill="black"/>
</svg>
